<?xml version="1.0" standalone="no"?>
<!DOCTYPE svg PUBLIC "-//W3C//DTD SVG 20010904//EN"
 "http://www.w3.org/TR/2001/REC-SVG-20010904/DTD/svg10.dtd">
<svg version="1.0" xmlns="http://www.w3.org/2000/svg"
 width="512.000000pt" height="512.000000pt" viewBox="0 0 512.000000 512.000000"
 preserveAspectRatio="xMidYMid meet">
<metadata>
Created by potrace 1.14, written by Peter Selinger 2001-2017
</metadata>
<g transform="translate(0.000000,512.000000) scale(0.100000,-0.100000)"
fill="#000000" stroke="none">
<path d="M4738 5115 c-2 -1 -28 -6 -59 -9 -31 -4 -65 -8 -75 -10 -11 -2 -44
-7 -75 -10 -31 -4 -65 -8 -75 -10 -11 -2 -48 -7 -84 -11 -36 -4 -72 -9 -80
-10 -8 -1 -44 -6 -80 -11 -36 -4 -67 -8 -70 -9 -3 -1 -36 -5 -75 -9 -38 -5
-77 -10 -86 -11 -9 -2 -40 -6 -70 -10 -30 -3 -101 -12 -159 -20 -58 -8 -127
-17 -155 -20 -27 -3 -66 -8 -85 -11 -42 -6 -396 -52 -460 -60 -25 -3 -56 -7
-70 -9 -14 -2 -50 -7 -80 -10 -30 -3 -66 -8 -80 -10 -14 -2 -99 -14 -190 -25
-91 -11 -176 -23 -190 -25 -14 -2 -50 -7 -80 -10 -30 -3 -66 -8 -80 -10 -59
-9 -108 -15 -155 -21 -27 -3 -61 -7 -75 -9 -14 -2 -50 -6 -80 -10 -90 -10
-106 -15 -131 -41 l-24 -26 -2 -1696 c-1 -933 -2 -1701 -2 -1706 -1 -5 -25 13
-53 41 -173 162 -391 245 -643 245 -229 0 -429 -68 -595 -201 -144 -116 -253
-291 -278 -446 -14 -85 -7 -268 13 -330 84 -268 290 -465 583 -555 92 -28 148
-35 297 -34 102 0 148 5 214 23 167 44 305 119 413 224 120 116 174 211 226
397 9 33 11 289 12 1601 l0 1367 68 7 c37 4 76 9 87 11 22 4 87 13 155 20 25
2 56 6 70 9 24 4 48 7 160 21 30 3 62 8 70 9 8 2 42 6 75 9 33 4 71 9 85 11
73 10 110 15 155 21 28 3 61 7 75 9 14 2 81 11 150 20 69 9 136 18 150 20 14
2 50 6 80 10 30 4 66 8 80 10 14 2 81 11 150 20 115 14 195 25 310 40 25 4 61
8 80 10 19 2 55 7 80 10 25 3 59 8 75 10 147 19 204 26 230 30 17 2 53 7 80
10 28 3 64 8 80 10 86 13 135 18 150 16 7 -1 10 -295 10 -875 0 -823 -1 -874
-17 -865 -9 5 -21 15 -25 22 -17 27 -121 106 -191 145 -40 23 -75 41 -77 42
-3 0 -22 7 -43 16 -126 53 -354 75 -507 48 -343 -59 -619 -291 -700 -589 -24
-84 -28 -239 -10 -325 81 -385 465 -660 900 -644 50 2 104 5 120 8 299 46 555
229 669 477 71 156 67 40 67 1848 0 894 -1 1663 -1 1708 0 72 -3 85 -24 110
-19 22 -33 28 -74 29 -28 1 -52 1 -54 -1z"/>
</g>
</svg>
